_________________________  Visit us at _________________________
  
http://p2pdl.com  ____________________________  http://p2pdl.com


Scavengers 2013 BRRip 720p x264 AAC - PRiSTiNE

Genre: Sci-Fi
Plot: A team of space scavengers discovers superior 
alien technology that threatens the balance of the 
known universe. Hotly pursued by a rival crew of 
intergalactic mercenaries, the Revelator crew must 
fight through the deepest reaches of space to locate 
and protect the life-altering device.
Director: Travis Zariwny
Stars: John Lee Ames, Roark Critchlow, Brett Curtze
Rated: Rated PG-13

Info: 
http://www.imdb.com/title/tt1564369/

General
Complete name                  : Scavengers 2013 BRRip 720p x264 AAC - PRiSTiNE.mp4
Format                         : MPEG-4
Format profile                 : Base Media
File size                      : 536 MiB
Duration                       : 1h 33mn
Overall bit rate mode          : Variable
Overall bit rate               : 801 Kbps

Source                         : 720p BluRay VETO (Thanks)

Video
Format                         : AVC
Format/Info                    : Advanced Video Codec
Format profile                 : High@L4.1
Codec ID/Info                  : Advanced Video Coding
Bit rate                       : 715 Kbps
Width                          : 1 280 pixels
Height                         : 536 pixels
Display aspect ratio           : 2.40:1
Frame rate                     : 23.976 fps
Bit depth                      : 8 bits
Stream size                    : 477 MiB (89%)
Writing library                : x264 core 129 r2245 bc13772

Audio
Format                         : AAC
Format/Info                    : Advanced Audio Codec
Bit rate mode                  : Variable
Bit rate                       : 84.0 Kbps
Channel(s)                     : 2 channels
Channel positions              : Front: L R
Sampling rate                  : 48.0 KHz / 24.0 KHz
Stream size                    : 56.1 MiB (10%)
Language                       : English

Subtitle                       : No

Screens: 
http://imgr.us/images/3yta2owqsl3wqwc1ifcg.jpg 
http://imgr.us/images/q8qpqgpv4t12daonm2kv.jpg 
http://imgr.us/images/7omnxzyrrl7nll5m1.jpg 
http://imgr.us/images/tij52nu7p38d1ibd793.jpg 
http://imgr.us/images/tij52nu7p38d1ibd793.jpg

----------------------------------------------------------------------------------------------------
Encoded using revolutionary 10bit encoding, which enables us to provide you more crispier 
and sharper images at small sizes, just make sure you follow our instructions without a fault.
Recommend to you to use latest version of VLC player. Install K-Lite Codec Pack or shark007 codecs
in case of any kind of problem in playback (For non-VLC Media Player users). Alternatively, install
Core AVC codecs, the fastest decoder that there is coupled with Community Center Codec Pack and play
on Windows Media Player Classic. Check sample to be sure.
Enjoy!

Encoder Notes:Looking For Early Access To Anything You Can Provide DVDScr, R5, DVDR, BluRay, Direct
Audio, Music Releases and Seedboxes. We require dedicated servers, so as to do more 
and fast releases of movies.
If You Got anything to offer please contact us at "prg@hush.com".